<svg width="200" height="216" viewBox="0 0 200 216" fill="none" xmlns="http://www.w3.org/2000/svg">
<rect width="25.998" height="10.6659" rx="5.33293" transform="matrix(0 -1 -1 0 193.143 64.7533)" fill="#9E00FF"/>
<rect width="5.90864" height="2.66646" rx="1.33323" transform="matrix(0 -1 -1 0 195.429 69.4802)" fill="#00FFF0"/>
<rect width="11.4234" height="9.52308" rx="4.76154" transform="matrix(0 -1 -1 0 200 65.5411)" fill="#9E00FF"/>
<rect width="7.99939" height="2.75737" rx="1.37868" transform="matrix(-1 0 0 1 183.62 53.33)" fill="#9E00FF"/>
<rect width="7.99939" height="2.75737" rx="1.37868" transform="matrix(-1 0 0 1 183.62 46.2396)" fill="#9E00FF"/>
<rect width="5.90864" height="2.66646" rx="1.33323" transform="matrix(0 -1 -1 0 178.287 59.2385)" fill="#00FFF0"/>
<rect width="5.90864" height="2.66646" rx="1.33323" transform="matrix(0 -1 -1 0 178.287 52.1482)" fill="#00FFF0"/>
<path d="M0 27.3623L52.2003 24.6149L99.5927 39.3821L104.744 74.0678L66.2807 144.47L0 215.558V27.3623Z" fill="#B1B1B1"/>
<path d="M94.6188 24.4065C135.818 -16.9672 174.573 1.36287 185.397 27.1997" stroke="#00FFF0" stroke-dasharray="20 20"/>
</svg>
