<svg width="159" height="163" viewBox="0 0 159 163" fill="none" xmlns="http://www.w3.org/2000/svg">
<path d="M13.547 25.3378L10.7144 25.9879C10.5009 25.0109 10.4043 24.1941 10.4246 23.5375C10.4527 22.8684 10.6002 22.2307 10.8672 21.6244C11.1342 21.0181 11.5118 20.3115 11.9999 19.5048C12.3574 18.9205 12.6813 18.3759 12.9716 17.8711C13.2697 17.3538 13.4846 16.8235 13.6165 16.2803C13.746 15.7269 13.7315 15.105 13.573 14.4146C13.4123 13.714 13.1467 13.1391 12.7764 12.6897C12.4162 12.238 11.961 11.931 11.4108 11.7687C10.8707 11.6041 10.2453 11.6033 9.5346 11.7664C8.94574 11.9016 8.41181 12.1363 7.9328 12.4707C7.45379 12.8051 7.1031 13.2329 6.88074 13.7542C6.65604 14.2653 6.62017 14.8774 6.77313 15.5904L3.95575 16.237C3.71275 15.0851 3.77101 14.035 4.13052 13.0869C4.50019 12.1363 5.10702 11.3344 5.95103 10.6812C6.79504 10.0279 7.80083 9.56729 8.96839 9.29934C10.2578 9.00342 11.4079 8.98528 12.4186 9.24493C13.4396 9.50225 14.2888 10.0127 14.9664 10.7763C15.6416 11.5298 16.1155 12.5005 16.3882 13.6883C16.5979 14.6021 16.6034 15.4879 16.4049 16.3457C16.2141 17.191 15.9063 18.0151 15.4814 18.818C15.0565 19.6209 14.589 20.4015 14.0791 21.1598C13.6395 21.8057 13.3978 22.4757 13.354 23.1698C13.3103 23.8638 13.3746 24.5865 13.547 25.3378ZM11.7005 30.8435C11.5957 30.3866 11.6493 29.9682 11.8613 29.5882C12.0734 29.2082 12.4484 28.9565 12.9865 28.833C13.5348 28.7072 13.9871 28.769 14.3436 29.0185C14.7002 29.268 14.9308 29.6212 15.0357 30.078C15.1359 30.5146 15.08 30.9229 14.8679 31.3029C14.6559 31.6828 14.2757 31.9357 13.7275 32.0616C13.1894 32.1851 12.7421 32.1221 12.3856 31.8726C12.0291 31.6231 11.8007 31.28 11.7005 30.8435Z" fill="white"/>
<rect x="18.2411" y="95.798" width="3.15901" height="34.7491" transform="rotate(-62.8155 18.2411 95.798)" fill="#B66D2A"/>
<rect x="11.1395" y="99.2534" width="15.7951" height="4.73852" transform="rotate(-62.8155 11.1395 99.2534)" fill="#8D8D8D"/>
<rect x="40.4211" y="80.9507" width="117.612" height="49.8962" rx="24.9481" fill="#9E00FF"/>
<rect x="19.0371" y="70.2585" width="26.7301" height="12.474" rx="6.23702" fill="#00FFF0"/>
<rect x="36.8571" y="48.8745" width="51.6782" height="44.5502" rx="20" fill="#9E00FF"/>
<rect x="92.0994" y="125.501" width="37.4221" height="12.474" rx="6.23702" transform="rotate(90 92.0994 125.501)" fill="#9E00FF"/>
<rect x="124.175" y="125.501" width="37.4221" height="12.474" rx="6.23702" transform="rotate(90 124.175 125.501)" fill="#9E00FF"/>
<rect x="65.3693" y="150.449" width="26.7301" height="12.474" rx="6.23702" fill="#00FFF0"/>
<rect x="97.4454" y="150.449" width="26.7301" height="12.474" rx="6.23702" fill="#00FFF0"/>
<path d="M93.2739 64.6696C61.6837 64.6696 79.1305 64.6696 61.6837 64.6696C44.237 64.6696 61.6837 64.6696 30.0936 64.6696C30.0936 47.2228 44.237 33.0795 61.6837 33.0795C79.1305 33.0795 93.2739 47.2228 93.2739 64.6696Z" fill="#FF9900"/>
</svg>
