<svg width="120" height="120" viewBox="0 0 120 120" fill="none" xmlns="http://www.w3.org/2000/svg">
<g clip-path="url(#clip0_1070_2)">
<path d="M120 0H0V120H120V0Z" fill="#090D12"/>
<path d="M88.2051 44.3076H45.3334C36.6101 44.3076 29.5385 51.3792 29.5385 60.1025C29.5385 68.8257 36.6101 75.8973 45.3334 75.8973H88.2051C96.9284 75.8973 104 68.8257 104 60.1025C104 51.3792 96.9284 44.3076 88.2051 44.3076Z" fill="#9E00FF"/>
<path d="M28.9744 37.5386H19.9487C17.7679 37.5386 16 39.3065 16 41.4873C16 43.6681 17.7679 45.436 19.9487 45.436H28.9744C31.1552 45.436 32.9231 43.6681 32.9231 41.4873C32.9231 39.3065 31.1552 37.5386 28.9744 37.5386Z" fill="#00FFF0"/>
<path d="M47.9999 24H39.282C32.6546 24 27.282 29.3726 27.282 36V40.2051C27.282 46.8325 32.6546 52.2051 39.282 52.2051H47.9999C54.6273 52.2051 59.9999 46.8325 59.9999 40.2051V36C59.9999 29.3726 54.6273 24 47.9999 24Z" fill="#9E00FF"/>
<path d="M62.2564 92.2563V76.4614C62.2564 74.2806 60.4885 72.5127 58.3077 72.5127C56.1269 72.5127 54.359 74.2806 54.359 76.4614V92.2563C54.359 94.4371 56.1269 96.205 58.3077 96.205C60.4885 96.205 62.2564 94.4371 62.2564 92.2563Z" fill="#9E00FF"/>
<path d="M82.5641 92.2563V76.4614C82.5641 74.2806 80.7962 72.5127 78.6154 72.5127C76.4346 72.5127 74.6666 74.2806 74.6666 76.4614V92.2563C74.6666 94.4371 76.4346 96.205 78.6154 96.205C80.7962 96.205 82.5641 94.4371 82.5641 92.2563Z" fill="#9E00FF"/>
<path d="M58.3077 88.3076H49.282C47.1012 88.3076 45.3333 90.0755 45.3333 92.2563C45.3333 94.4372 47.1012 96.2051 49.282 96.2051H58.3077C60.4885 96.2051 62.2564 94.4372 62.2564 92.2563C62.2564 90.0755 60.4885 88.3076 58.3077 88.3076Z" fill="#00FFF0"/>
<path d="M78.6155 88.3076H69.5898C67.409 88.3076 65.6411 90.0755 65.6411 92.2563C65.6411 94.4372 67.409 96.2051 69.5898 96.2051H78.6155C80.7963 96.2051 82.5642 94.4372 82.5642 92.2563C82.5642 90.0755 80.7963 88.3076 78.6155 88.3076Z" fill="#00FFF0"/>
</g>
<defs>
<clipPath id="clip0_1070_2">
<rect width="120" height="120" fill="white"/>
</clipPath>
</defs>
</svg>
