<svg width="78" height="152" viewBox="0 0 78 152" fill="none" xmlns="http://www.w3.org/2000/svg">
<path d="M5.64062 7.25L5.4375 23.5781H2.82813L2.60938 7.25H5.64062ZM2.51563 28.5469C2.51563 28.0781 2.65625 27.6823 2.9375 27.3594C3.22917 27.0365 3.65625 26.875 4.21875 26.875C4.77083 26.875 5.19271 27.0365 5.48438 27.3594C5.78646 27.6823 5.9375 28.0781 5.9375 28.5469C5.9375 28.9948 5.78646 29.3802 5.48438 29.7031C5.19271 30.026 4.77083 30.1875 4.21875 30.1875C3.65625 30.1875 3.22917 30.026 2.9375 29.7031C2.65625 29.3802 2.51563 28.9948 2.51563 28.5469Z" fill="white"/>
<rect x="2" y="65" width="76" height="50" rx="25" fill="#9E00FF"/>
<rect x="14" y="24" width="51.6782" height="44.5502" rx="20" fill="#9E00FF"/>
<rect x="31.4741" y="109" width="37.4221" height="12.474" rx="6.23702" transform="rotate(90 31.4741 109)" fill="#9E00FF"/>
<path d="M56.237 109C59.6817 109 62.4741 111.792 62.4741 115.237L62.4741 140.185C62.4741 143.63 59.6817 146.422 56.237 146.422C52.7924 146.422 50 143.63 50 140.185L50 115.237C50 111.792 52.7924 109 56.237 109Z" fill="#9E00FF"/>
<rect x="18" y="140" width="14" height="12" rx="6" fill="#00FFF0"/>
<rect x="49" y="140" width="14" height="12" rx="6" fill="#00FFF0"/>
<rect x="27" y="46" width="26.7301" height="12.474" rx="6.23702" fill="#00FFF0"/>
</svg>
